<svg width="13" height="15" viewBox="0 0 13 15" class="icon icon-cart" fill="none" xmlns="http://www.w3.org/2000/svg">
<path d="M12.4905 3.03159C12.4905 3.01252 12.4857 2.99822 12.4762 2.98869C12.4666 2.93149 12.4237 2.86475 12.3474 2.78849C12.3379 2.78849 12.3331 2.78372 12.3331 2.77419L11.6177 2.23079V0.443288C11.6177 0.376555 11.6034 0.314588 11.5748 0.257388C11.5653 0.247855 11.5605 0.238321 11.5605 0.228788L11.5462 0.214488C11.5176 0.157288 11.4746 0.114388 11.4174 0.0857879L11.3745 0.0571879C11.2982 0.0190545 11.2314 -1.21295e-05 11.1742 -1.21295e-05H1.3306C1.27337 -1.21295e-05 1.2066 0.0190545 1.1303 0.0571879L1.08737 0.0857879C1.03968 0.123921 0.996758 0.166821 0.958605 0.214488L0.944297 0.228788V0.257388C0.906144 0.305055 0.887067 0.367021 0.887067 0.443288V2.23079L0.17169 2.77419C0.17169 2.78372 0.166921 2.78849 0.157383 2.78849C0.109691 2.82662 0.0667685 2.88859 0.0286151 2.97439C0.0190767 2.99345 0.0119229 3.01252 0.00715377 3.03159C0.00238459 3.05065 0 3.08402 0 3.13169V12.5125C0 12.8366 0.081076 13.1345 0.243228 13.4062C0.40538 13.6779 0.622378 13.8948 0.894221 14.0569C1.16606 14.219 1.46414 14.3 1.78844 14.3H10.7307C11.0454 14.3 11.3411 14.219 11.6177 14.0569C11.8943 13.8948 12.1137 13.6779 12.2759 13.4062C12.438 13.1345 12.5191 12.8366 12.5191 12.5125V3.13169C12.5191 3.10309 12.5096 3.06972 12.4905 3.03159ZM2.60397 1.54439L2.17475 0.886588H10.33L9.90081 1.54439C9.83405 1.63972 9.81258 1.74697 9.83643 1.86614C9.86028 1.9853 9.91989 2.07825 10.0153 2.14499L10.7307 2.67409H1.78844L2.50382 2.14499C2.5992 2.07825 2.65643 1.9853 2.67551 1.86614C2.69459 1.74697 2.67074 1.63972 2.60397 1.54439ZM11.6177 12.5125C11.6177 12.7604 11.5295 12.9725 11.353 13.1488C11.1766 13.3252 10.9691 13.4134 10.7307 13.4134H1.78844C1.54044 13.4134 1.32822 13.3252 1.15176 13.1488C0.975297 12.9725 0.887067 12.7604 0.887067 12.5125V3.57499H11.6177V12.5125ZM9.38574 5.36249C9.26174 5.36249 9.15682 5.40539 9.07098 5.49119C8.98513 5.57699 8.94221 5.68185 8.94221 5.80579V7.14999C8.94221 7.63619 8.82059 8.08425 8.57737 8.49419C8.33414 8.90412 8.00745 9.22825 7.5973 9.46659C7.18715 9.70492 6.73885 9.82409 6.25239 9.82409C5.76594 9.82409 5.31763 9.70492 4.90748 9.46659C4.49733 9.22825 4.17303 8.90412 3.93457 8.49419C3.69611 8.08425 3.57688 7.63619 3.57688 7.14999V5.80579C3.57688 5.68185 3.53158 5.57699 3.44096 5.49119C3.35035 5.40539 3.24304 5.36249 3.11904 5.36249C2.99504 5.36249 2.89012 5.40539 2.80428 5.49119C2.71843 5.57699 2.67551 5.68185 2.67551 5.80579V7.14999C2.67551 7.79825 2.83528 8.39647 3.15481 8.94464C3.47435 9.4928 3.90834 9.92657 4.4568 10.2459C5.00525 10.5653 5.60378 10.725 6.25239 10.725C6.901 10.725 7.49953 10.5653 8.04799 10.2459C8.59644 9.92657 9.03044 9.4928 9.34997 8.94464C9.66951 8.39647 9.82928 7.79825 9.82928 7.14999V5.80579C9.82928 5.68185 9.78635 5.57699 9.70051 5.49119C9.61466 5.40539 9.50974 5.36249 9.38574 5.36249Z" fill="#242424"/>
</svg>
