<svg width="27" height="27" viewBox="0 0 27 27" fill="none" xmlns="http://www.w3.org/2000/svg">
<path d="M14.4753 26.0556H8.68519V8.68519H14.4753V11.5802C15.7095 10.01 17.5812 9.07395 19.5779 9.02825C23.1686 9.04818 26.066 11.9702 26.0556 15.561V26.0556H20.2654V16.2847C20.0339 14.6673 18.6467 13.4672 17.0128 13.4707C16.2982 13.4933 15.6236 13.8062 15.1447 14.3372C14.6659 14.8683 14.4241 15.5715 14.4753 16.2847V26.0556ZM5.79012 26.0556H0V8.68519H5.79012V26.0556ZM2.89506 5.79012C1.29616 5.79012 0 4.49396 0 2.89506C0 1.29616 1.29616 0 2.89506 0C4.49396 0 5.79012 1.29616 5.79012 2.89506C5.79012 3.66288 5.48511 4.39925 4.94218 4.94218C4.39925 5.48511 3.66288 5.79012 2.89506 5.79012Z" fill="#514B41"/>
</svg>
