<svg width="10" height="9" viewBox="0 0 10 9" fill="none" xmlns="http://www.w3.org/2000/svg">
<path d="M6.84976 6.97107L8.37461 5.51841L8.37461 5.5184C8.43822 5.45782 8.52373 5.4244 8.61218 5.4244C8.70063 5.4244 8.78614 5.45782 8.84975 5.5184C8.91347 5.57909 8.95 5.66221 8.95 5.7497C8.95 5.83719 8.91347 5.92031 8.84975 5.981L6.7499 7.9808C6.74989 7.98082 6.74988 7.98083 6.74986 7.98084L6.84976 6.97107ZM6.84976 6.97107L6.84976 2.24992C6.84976 1.89732 6.70264 1.55994 6.44207 1.31178C6.18163 1.06374 5.82914 0.925 5.46231 0.925L1.26249 0.925001C1.17413 0.925001 1.0887 0.958395 1.02516 1.01891C0.961493 1.07954 0.925001 1.16258 0.925001 1.24998C0.925001 1.33739 0.961493 1.42043 1.02516 1.48106C1.0887 1.54158 1.17413 1.57497 1.26249 1.57497L5.46231 1.57497C5.65242 1.57497 5.83405 1.64692 5.96741 1.77394C6.10065 1.90083 6.17478 2.07213 6.17478 2.24992L6.17478 6.97107L4.64993 5.51841L4.64992 5.5184C4.6184 5.48838 4.58117 5.46474 4.54046 5.44868C4.49974 5.43262 4.45623 5.4244 4.41236 5.4244C4.36849 5.4244 4.32497 5.43262 4.28426 5.44868C4.24354 5.46474 4.20631 5.48838 4.17479 5.5184C4.14326 5.54843 4.11804 5.58428 4.10077 5.624C4.08348 5.66373 4.07454 5.70646 4.07454 5.7497C4.07454 5.79294 4.08348 5.83566 4.10077 5.8754C4.11804 5.91512 4.14326 5.95097 4.17479 5.981L6.27463 7.9808C6.27465 7.98082 6.27466 7.98083 6.27467 7.98084L6.84976 6.97107Z" fill="#222222" stroke="#222222" stroke-width="0.15"/>
</svg>
