<svg width="22" height="26" viewBox="0 0 22 26" fill="none" xmlns="http://www.w3.org/2000/svg">
<path fill-rule="evenodd" clip-rule="evenodd" d="M3.22202 3.15433C5.2849 1.13465 8.08277 0 11.0001 0C13.9175 0 16.7153 1.13465 18.7782 3.15433C20.8411 5.17401 22 7.91329 22 10.7696C22 13.6258 20.8411 16.3651 18.7782 18.3848L11.0001 26L3.22202 18.3848C2.20052 17.3848 1.39022 16.1976 0.837381 14.8909C0.284543 13.5843 0 12.1839 0 10.7696C0 9.35526 0.284543 7.95481 0.837381 6.64818C1.39022 5.34155 2.20052 4.15434 3.22202 3.15433ZM11.0001 13.8464C11.8336 13.8464 12.633 13.5222 13.2223 12.9452C13.8117 12.3682 14.1428 11.5856 14.1428 10.7696C14.1428 9.95352 13.8117 9.17091 13.2223 8.59389C12.633 8.01686 11.8336 7.6927 11.0001 7.6927C10.1666 7.6927 9.36728 8.01686 8.77792 8.59389C8.18855 9.17091 7.85745 9.95352 7.85745 10.7696C7.85745 11.5856 8.18855 12.3682 8.77792 12.9452C9.36728 13.5222 10.1666 13.8464 11.0001 13.8464Z" fill="black"/>
</svg>
