<svg width="26" height="28" viewBox="0 0 26 28" fill="none" xmlns="http://www.w3.org/2000/svg">
<g filter="url(#filter0_d_268_1011)">
<path d="M15.3976 17.9228L18.8732 14.2744L7.85696 14.2744C7.07814 14.2744 6.33201 13.9495 5.78247 13.3725C5.23306 12.7956 4.925 12.0139 4.925 11.1996L4.925 1.59998C4.925 1.42211 4.99226 1.25084 5.11305 1.12401C5.23395 0.997052 5.39875 0.925002 5.57139 0.925002C5.74404 0.925002 5.90883 0.997052 6.02974 1.12401C6.15053 1.25084 6.21778 1.42211 6.21778 1.59998L6.21778 11.1996C6.21778 11.6582 6.39133 12.0973 6.69917 12.4206C7.00688 12.7437 7.42344 12.9245 7.85696 12.9245L18.8732 12.9245L15.3976 9.27619L15.3976 9.27618C15.3377 9.21328 15.2904 9.1388 15.2581 9.05709C15.2259 8.97538 15.2093 8.88792 15.2093 8.79967C15.2093 8.71143 15.2259 8.62397 15.2581 8.54226C15.2904 8.46055 15.3377 8.38607 15.3976 8.32317C15.4575 8.26026 15.5288 8.21015 15.6076 8.17589C15.6864 8.14163 15.7709 8.12394 15.8565 8.12394C15.942 8.12394 16.0265 8.14163 16.1053 8.17589C16.1841 8.21015 16.2554 8.26026 16.3153 8.32317L20.8864 13.1229C20.9464 13.1858 20.9938 13.2602 21.0261 13.342C21.0584 13.4237 21.075 13.5112 21.075 13.5995C21.075 13.6878 21.0584 13.7753 21.0261 13.857C20.9938 13.9387 20.9464 14.0132 20.8864 14.076L16.3153 18.8758C16.1943 19.0029 16.0293 19.075 15.8564 19.075C15.6836 19.075 15.5186 19.0029 15.3976 18.8758C15.2767 18.7488 15.2093 18.5773 15.2093 18.3993C15.2093 18.2212 15.2767 18.0497 15.3976 17.9228L15.3976 17.9228Z" fill="white" stroke="white" stroke-width="0.15"/>
</g>
<defs>
<filter id="filter0_d_268_1011" x="0.849609" y="0.849609" width="24.3008" height="26.3008" filterUnits="userSpaceOnUse" color-interpolation-filters="sRGB">
<feFlood flood-opacity="0" result="BackgroundImageFix"/>
<feColorMatrix in="SourceAlpha" type="matrix" values="0 0 0 0 0 0 0 0 0 0 0 0 0 0 0 0 0 0 127 0" result="hardAlpha"/>
<feOffset dy="4"/>
<feGaussianBlur stdDeviation="2"/>
<feComposite in2="hardAlpha" operator="out"/>
<feColorMatrix type="matrix" values="0 0 0 0 0 0 0 0 0 0 0 0 0 0 0 0 0 0 0.25 0"/>
<feBlend mode="normal" in2="BackgroundImageFix" result="effect1_dropShadow_268_1011"/>
<feBlend mode="normal" in="SourceGraphic" in2="effect1_dropShadow_268_1011" result="shape"/>
</filter>
</defs>
</svg>
