<svg width="51" height="50" viewBox="0 0 51 50" fill="none" xmlns="http://www.w3.org/2000/svg">
<path d="M2.4751 24.9999L48.4751 24.9999" stroke="#ACB2B4"/>
<path d="M2.71847 32.1401C5.53223 41.9588 14.574 49.1472 25.2977 49.1536C35.6827 49.1599 44.4983 42.429 47.6111 33.0895" stroke="#ACB2B4"/>
<path d="M1.18553 36.2837L2.43112 31.2628L6.80641 34.7698" stroke="#ACB2B4" stroke-linecap="round"/>
<path d="M2.71847 32.1401C5.53223 41.9588 14.574 49.1472 25.2977 49.1536C35.6827 49.1599 44.4983 42.429 47.6111 33.0895" stroke="#ACB2B4"/>
<path d="M1.18553 36.2837L2.43112 31.2628L6.80641 34.7698" stroke="#ACB2B4" stroke-linecap="round"/>
<path d="M47.6329 17.253C44.463 7.54333 35.1651 0.689452 24.4483 1.07405C14.07 1.44649 5.50565 8.49438 2.73547 17.9411" stroke="#ACB2B4"/>
<path d="M49.0138 13.0562L47.9521 18.1192L43.4519 14.7741" stroke="#ACB2B4" stroke-linecap="round"/>
<path d="M47.6329 17.253C44.463 7.54333 35.1651 0.689452 24.4483 1.07405C14.07 1.44649 5.50565 8.49438 2.73547 17.9411" stroke="#ACB2B4"/>
<path d="M49.0138 13.0562L47.9521 18.1192L43.4519 14.7741" stroke="#ACB2B4" stroke-linecap="round"/>
</svg>

