<svg width="36" height="53" viewBox="0 0 36 53" fill="none" xmlns="http://www.w3.org/2000/svg">
<mask id="mask0_2117_58" style="mask-type:alpha" maskUnits="userSpaceOnUse" x="0" y="0" width="36" height="53">
<rect width="36" height="53" fill="#D9D9D9"/>
</mask>
<g mask="url(#mask0_2117_58)">
<mask id="mask1_2117_58" style="mask-type:alpha" maskUnits="userSpaceOnUse" x="0" y="33" width="34" height="27">
<path d="M33.9897 33.5635H0V59.9999H33.9897V33.5635Z" fill="#E5E5E5"/>
</mask>
<g mask="url(#mask1_2117_58)">
<path d="M16.9948 50.4359C26.1046 50.4359 33.4896 43.0509 33.4896 33.9411C33.4896 24.8313 26.1046 17.4463 16.9948 17.4463C7.88497 17.4463 0.5 24.8313 0.5 33.9411C0.5 43.0509 7.88497 50.4359 16.9948 50.4359Z" stroke="#6C7072"/>
</g>
<mask id="mask2_2117_58" style="mask-type:alpha" maskUnits="userSpaceOnUse" x="0" y="15" width="34" height="27">
<path d="M33.9897 15.4355H0V41.8719H33.9897V15.4355Z" fill="#E5E5E5"/>
</mask>
<g mask="url(#mask2_2117_58)">
<path d="M16.9948 32.308C26.1046 32.308 33.4896 24.923 33.4896 15.8132C33.4896 6.70333 26.1046 -0.681641 16.9948 -0.681641C7.88497 -0.681641 0.5 6.70333 0.5 15.8132C0.5 24.923 7.88497 32.308 16.9948 32.308Z" stroke="#6C7072"/>
</g>
<path d="M17.4788 12.0045C20.1034 12.0045 22.2311 9.87686 22.2311 7.25226C22.2311 4.62766 20.1034 2.5 17.4788 2.5C14.8542 2.5 12.7266 4.62766 12.7266 7.25226C12.7266 9.87686 14.8542 12.0045 17.4788 12.0045Z" stroke="#6C7072"/>
</g>
</svg>
