<svg width="40" height="62" viewBox="0 0 40 62" fill="none" xmlns="http://www.w3.org/2000/svg">
<g filter="url(#filter0_b_795_10)">
<rect y="40" width="40" height="40" rx="6" transform="rotate(-90 0 40)" fill="white"/>
</g>
<path d="M12.9992 23.9289L20.0703 16.8579L27.1414 23.9289" stroke="#121212" stroke-width="2"/>
<path d="M9.80674 51.924V51.056H10.9687V49.18H12.0607V51.056H13.6567V51.924H12.0607V56.124C12.0607 56.5253 12.1214 56.8147 12.2427 56.992C12.3734 57.16 12.6301 57.244 13.0127 57.244C13.1714 57.244 13.3441 57.216 13.5307 57.16L13.6287 58.07C13.3861 58.154 13.0781 58.196 12.7047 58.196C12.2007 58.196 11.7854 58.0513 11.4587 57.762C11.1321 57.4633 10.9687 56.9873 10.9687 56.334V51.924H9.80674ZM21.0798 52.54C21.4531 53.1093 21.6398 53.772 21.6398 54.528C21.6398 55.284 21.4531 55.9467 21.0798 56.516C20.7158 57.0853 20.2631 57.51 19.7218 57.79C19.1805 58.0607 18.6111 58.196 18.0138 58.196C17.4165 58.196 16.8471 58.0607 16.3058 57.79C15.7645 57.51 15.3071 57.0853 14.9338 56.516C14.5698 55.9467 14.3878 55.284 14.3878 54.528C14.3878 53.772 14.5698 53.1093 14.9338 52.54C15.3071 51.9707 15.7645 51.5507 16.3058 51.28C16.8471 51 17.4165 50.86 18.0138 50.86C18.6111 50.86 19.1805 51 19.7218 51.28C20.2631 51.5507 20.7158 51.9707 21.0798 52.54ZM16.2218 56.46C16.7071 56.964 17.3045 57.216 18.0138 57.216C18.7231 57.216 19.3158 56.964 19.7918 56.46C20.2771 55.9467 20.5198 55.3027 20.5198 54.528C20.5198 53.7533 20.2771 53.114 19.7918 52.61C19.3158 52.0967 18.7231 51.84 18.0138 51.84C17.3045 51.84 16.7071 52.0967 16.2218 52.61C15.7458 53.114 15.5078 53.7533 15.5078 54.528C15.5078 55.3027 15.7458 55.9467 16.2218 56.46ZM23.1457 60.856V51.056H24.2377V52.302C24.4523 51.882 24.7837 51.5367 25.2317 51.266C25.6797 50.9953 26.179 50.86 26.7297 50.86C27.663 50.86 28.4423 51.196 29.0677 51.868C29.693 52.54 30.0057 53.4267 30.0057 54.528C30.0057 55.6293 29.6837 56.516 29.0397 57.188C28.3957 57.86 27.6023 58.196 26.6597 58.196C25.577 58.196 24.7697 57.762 24.2377 56.894V60.856H23.1457ZM28.2137 52.61C27.7657 52.1153 27.201 51.868 26.5197 51.868C25.8383 51.868 25.2737 52.1153 24.8257 52.61C24.3777 53.0953 24.1537 53.7347 24.1537 54.528C24.1537 55.3213 24.3777 55.9653 24.8257 56.46C25.2737 56.9453 25.8383 57.188 26.5197 57.188C27.201 57.188 27.7657 56.9453 28.2137 56.46C28.6617 55.9653 28.8857 55.3213 28.8857 54.528C28.8857 53.7347 28.6617 53.0953 28.2137 52.61Z" fill="white"/>
<defs>
<filter id="filter0_b_795_10" x="-50" y="-50" width="140" height="140" filterUnits="userSpaceOnUse" color-interpolation-filters="sRGB">
<feFlood flood-opacity="0" result="BackgroundImageFix"/>
<feGaussianBlur in="BackgroundImage" stdDeviation="25"/>
<feComposite in2="SourceAlpha" operator="in" result="effect1_backgroundBlur_795_10"/>
<feBlend mode="normal" in="SourceGraphic" in2="effect1_backgroundBlur_795_10" result="shape"/>
</filter>
</defs>
</svg>
