<svg xmlns="http://www.w3.org/2000/svg" viewBox="0 0 20 20"><path fill="#212b36" d="M3.2 0h13.6A3.2 3.2 0 0120 3.2v13.6a3.2 3.2 0 01-3.2 3.2H3.2A3.2 3.2 0 010 16.8V3.2A3.2 3.2 0 013.2 0z" opacity=".9"/><path fill="#c4cdd5" d="M14.139 7.816l-3.877-2.149a.54.54 0 00-.523 0L5.862 7.816a.496.496 0 00-.261.435v4.298c0 .179.1.345.261.435l3.877 2.149a.54.54 0 00.523 0l3.877-2.149a.496.496 0 00.261-.435V8.251c0-.179-.1-.345-.261-.435zM10 6.682l2.831 1.569L10 9.82 7.169 8.251 10 6.682zM6.646 9.12l2.831 1.569v3.139l-2.831-1.57V9.119zm3.877 4.709V10.69l2.831-1.569v3.138l-2.831 1.57z"/></svg>