<svg width="18" height="20" viewBox="0 0 18 20" fill="none" xmlns="http://www.w3.org/2000/svg">
<path d="M11.3976 17.9228L14.8732 14.2744L3.85696 14.2744C3.07814 14.2744 2.33201 13.9495 1.78247 13.3725C1.23306 12.7956 0.925 12.0139 0.925 11.1996L0.925 1.59998C0.925 1.42211 0.992255 1.25084 1.11305 1.12401C1.23395 0.997052 1.39875 0.925002 1.57139 0.925002C1.74404 0.925002 1.90883 0.997052 2.02974 1.12401C2.15053 1.25084 2.21778 1.42211 2.21778 1.59998L2.21778 11.1996C2.21778 11.6582 2.39133 12.0973 2.69917 12.4206C3.00688 12.7437 3.42344 12.9245 3.85696 12.9245L14.8732 12.9245L11.3976 9.27619L11.3976 9.27618C11.3377 9.21328 11.2904 9.1388 11.2581 9.05709C11.2259 8.97538 11.2093 8.88792 11.2093 8.79967C11.2093 8.71143 11.2259 8.62397 11.2581 8.54226C11.2904 8.46055 11.3377 8.38607 11.3976 8.32317C11.4575 8.26026 11.5288 8.21015 11.6076 8.17589C11.6864 8.14163 11.7709 8.12394 11.8565 8.12394C11.942 8.12394 12.0265 8.14163 12.1053 8.17589C12.1841 8.21015 12.2554 8.26026 12.3153 8.32317L16.8864 13.1229C16.9464 13.1858 16.9938 13.2602 17.0261 13.342C17.0584 13.4237 17.075 13.5112 17.075 13.5995C17.075 13.6878 17.0584 13.7753 17.0261 13.857C16.9938 13.9387 16.9464 14.0132 16.8864 14.076L12.3153 18.8758C12.1943 19.0029 12.0293 19.075 11.8564 19.075C11.6836 19.075 11.5186 19.0029 11.3976 18.8758C11.2767 18.7488 11.2093 18.5773 11.2093 18.3993C11.2093 18.2212 11.2767 18.0497 11.3976 17.9228L11.3976 17.9228Z" fill="#222222" stroke="#222222" stroke-width="0.15"/>
</svg>
