<svg width="12" height="12" viewBox="0 0 12 12" fill="none" xmlns="http://www.w3.org/2000/svg">
<path fill-rule="evenodd" clip-rule="evenodd" d="M12 0.499974C12 0.367373 11.9473 0.240202 11.8536 0.146439C11.7598 0.0526753 11.6326 3.21167e-08 11.5 4.37091e-08L5.50034 5.68218e-07C5.36774 5.79811e-07 5.24057 0.0526758 5.14681 0.146439C5.05304 0.240203 5.00037 0.367373 5.00037 0.499975C5.00037 0.632576 5.05304 0.759746 5.14681 0.85351C5.24057 0.947273 5.36774 0.999948 5.50034 0.999948L10.2931 0.999948L0.146624 11.1454C0.0527419 11.2393 -5.53713e-08 11.3666 -4.37643e-08 11.4994C-3.21573e-08 11.6322 0.052742 11.7595 0.146624 11.8534C0.240505 11.9473 0.367837 12 0.500606 12C0.633374 12 0.760705 11.9473 0.854587 11.8534L11.0001 1.70691L11.0001 6.49966C11.0001 6.63226 11.0527 6.75943 11.1465 6.85319C11.2403 6.94696 11.3674 6.99963 11.5 6.99963C11.6326 6.99963 11.7598 6.94696 11.8536 6.85319C11.9473 6.75943 12 6.63226 12 6.49966L12 0.499974Z" fill="#121212"/>
</svg>
