<svg width="8" height="7" viewBox="0 0 8 7" fill="none" xmlns="http://www.w3.org/2000/svg">
<path fill-rule="evenodd" clip-rule="evenodd" d="M5.32643 6.92656C5.35081 6.94984 5.37977 6.96831 5.41166 6.98091C5.44355 6.99351 5.47774 7 5.51227 7C5.54679 7 5.58098 6.99351 5.61287 6.98091C5.64476 6.96831 5.67373 6.94984 5.69811 6.92656L7.79802 4.92669C7.84731 4.87975 7.875 4.81608 7.875 4.7497C7.875 4.68331 7.84731 4.61965 7.79802 4.57271C7.74873 4.52577 7.68188 4.4994 7.61218 4.4994C7.54247 4.4994 7.47563 4.52577 7.42634 4.57271L5.77476 6.14611L5.77476 1.24992C5.77476 0.918421 5.63648 0.600499 5.39035 0.366093C5.14422 0.131688 4.81039 3.56043e-07 4.46231 3.86473e-07L0.26249 7.53633e-07C0.192873 7.59719e-07 0.126108 0.0263381 0.0768819 0.0732192C0.0276557 0.1201 9.20149e-07 0.183685 9.25945e-07 0.249985C9.31742e-07 0.316285 0.0276557 0.379869 0.076882 0.42675C0.126108 0.473632 0.192873 0.499969 0.26249 0.499969L4.46231 0.499968C4.67116 0.499968 4.87146 0.578981 5.01914 0.719624C5.16681 0.860268 5.24978 1.05102 5.24978 1.24992L5.24978 6.14611L3.5982 4.57271C3.57379 4.54947 3.54482 4.53103 3.51293 4.51845C3.48105 4.50587 3.44687 4.4994 3.41236 4.4994C3.37784 4.4994 3.34367 4.50587 3.31178 4.51845C3.27989 4.53103 3.25092 4.54947 3.22651 4.57271C3.20211 4.59595 3.18275 4.62354 3.16954 4.65391C3.15633 4.68428 3.14954 4.71683 3.14954 4.7497C3.14954 4.78257 3.15633 4.81512 3.16954 4.84548C3.18275 4.87585 3.20211 4.90344 3.22651 4.92669L5.32643 6.92656V6.92656Z" fill="white"/>
</svg>
