<svg width="46" height="53" viewBox="0 0 46 53" fill="none" xmlns="http://www.w3.org/2000/svg">
<g clip-path="url(#clip0_903_14)">
<path d="M10.7817 21.7496C7.1206 23.2079 4.12398 25.9621 2.36284 29.4874C0.601697 33.0128 0.199146 37.0629 1.23189 40.866C2.26464 44.669 4.66049 47.9592 7.96291 50.1095C11.2653 52.2599 15.2435 53.12 19.1392 52.5261C23.035 51.9322 26.5761 49.9258 29.0878 46.8891C31.5995 43.8524 32.9061 39.9978 32.7587 36.0597C32.6113 32.1217 31.0203 28.3755 28.2887 25.5351C25.557 22.6946 21.8759 20.9584 17.9466 20.6574L17.8803 21.5226C21.5971 21.8074 25.0793 23.4497 27.6632 26.1366C30.2471 28.8235 31.7521 32.3671 31.8916 36.0922C32.031 39.8173 30.795 43.4635 28.4191 46.336C26.0433 49.2085 22.6936 51.1065 19.0085 51.6683C15.3233 52.2301 11.5603 51.4164 8.43642 49.3823C5.31256 47.3483 3.04625 44.236 2.06934 40.6386C1.09243 37.0411 1.47322 33.21 3.13914 29.8752C4.80506 26.5405 7.63966 23.9352 11.1028 22.5558L10.7817 21.7496Z" fill="#ACB2B4"/>
<path d="M34.8412 31.8289C38.5886 30.4138 41.6763 27.6565 43.5047 24.0925C45.3332 20.5286 45.7718 16.4122 44.7354 12.543C43.699 8.67373 41.2616 5.32775 37.8965 3.15486C34.5314 0.981962 30.4789 0.137247 26.5259 0.784763C22.573 1.43228 19.0017 3.52581 16.5058 6.65877C14.0098 9.79173 12.7673 13.7405 13.0196 17.7382C13.2719 21.7359 15.0008 25.4971 17.8708 28.2915C20.7408 31.0859 24.5468 32.7139 28.5498 32.8594L28.5871 31.8345C24.8383 31.6983 21.2739 30.1736 18.5863 27.5567C15.8986 24.9398 14.2794 21.4174 14.0431 17.6736C13.8069 13.9298 14.9705 10.2318 17.3079 7.29781C19.6454 4.36382 22.9898 2.40325 26.6917 1.79686C30.3936 1.19046 34.1888 1.98153 37.3401 4.01643C40.4915 6.05133 42.7741 9.18481 43.7447 12.8083C44.7153 16.4318 44.3045 20.2868 42.5922 23.6244C40.8799 26.9621 37.9883 29.5442 34.4789 30.8694L34.8412 31.8289Z" fill="#ACB2B4"/>
</g>
<defs>
<clipPath id="clip0_903_14">
<rect width="46" height="53" fill="white"/>
</clipPath>
</defs>
</svg>
