<svg width="60" height="61" viewBox="0 0 60 61" fill="none" xmlns="http://www.w3.org/2000/svg">
<rect x="2" y="2.23535" width="56" height="56" rx="28" fill="#FF69B2" stroke="#FF007E" stroke-width="4"/>
<path d="M15 21.9163C15.1636 21.3947 15.2585 20.8384 15.502 20.3575C16.3598 18.6615 17.7686 17.7555 19.6711 17.6515C20.2086 17.6221 20.7498 17.647 21.3211 17.647C21.3211 17.2595 21.3189 16.9015 21.3219 16.5434C21.3272 15.7776 21.8216 15.2402 22.5196 15.2371C23.2184 15.2341 23.7212 15.7716 23.7279 16.5329C23.731 16.8917 23.7287 17.2505 23.7287 17.6259C25.5355 17.6259 27.3174 17.6259 29.1491 17.6259C29.1491 17.2264 29.1363 16.8193 29.1521 16.4138C29.1845 15.5846 29.9647 15.0442 30.7388 15.3027C31.2137 15.4618 31.5355 15.8952 31.5513 16.4213C31.5627 16.8118 31.5536 17.203 31.5536 17.6183C33.374 17.6183 35.183 17.6183 37.0358 17.6183C37.0358 17.2188 37.0207 16.811 37.0388 16.4047C37.0803 15.4633 38.0881 14.9281 38.8758 15.4241C39.2421 15.6555 39.4275 16 39.4381 16.4304C39.4479 16.8201 39.4403 17.2105 39.4403 17.6424C39.7939 17.6424 40.1308 17.6492 40.4677 17.6409C41.2245 17.6236 41.9677 17.6809 42.6876 17.947C44.4838 18.611 45.7803 20.3492 45.8097 22.2676C45.8459 24.6141 45.8263 26.9621 45.8195 29.3086C45.8173 30.0028 45.2858 30.5191 44.621 30.5199C43.9449 30.5207 43.421 29.9953 43.4187 29.2807C43.412 27.054 43.4172 24.8274 43.415 22.6C43.4142 21.5688 42.9914 20.7736 42.0537 20.3085C41.7823 20.1744 41.465 20.0914 41.1627 20.0711C40.6049 20.0342 40.0426 20.0605 39.4426 20.0605C39.4426 20.4239 39.4449 20.7811 39.4418 21.1377C39.4366 21.9201 38.9338 22.4628 38.2245 22.4545C37.5273 22.4462 37.0403 21.9095 37.035 21.1399C37.0328 20.7902 37.0343 20.4404 37.0343 20.0696C35.2079 20.0696 33.3988 20.0696 31.5559 20.0696C31.5559 20.4005 31.5566 20.7284 31.5559 21.0563C31.5544 21.902 31.0855 22.45 30.3589 22.4545C29.6307 22.459 29.1498 21.9095 29.1476 21.0706C29.1468 20.742 29.1476 20.4126 29.1476 20.0666C27.3423 20.0666 25.5604 20.0666 23.7279 20.0666C23.7279 20.4638 23.7408 20.8701 23.7249 21.2756C23.6933 22.1055 22.9146 22.6467 22.1397 22.3889C21.6543 22.2276 21.3362 21.7874 21.3242 21.2417C21.3159 20.8535 21.3226 20.4653 21.3226 20.0168C20.6126 20.0515 19.9214 20.01 19.2618 20.1352C18.1839 20.3402 17.4731 21.2771 17.4121 22.4055C17.4076 22.4854 17.4083 22.5661 17.4083 22.646C17.4083 28.7847 17.4091 34.9234 17.4076 41.0622C17.4076 42.1046 17.8131 42.927 18.7726 43.3778C19.139 43.5496 19.5822 43.6288 19.9907 43.6318C22.95 43.6529 25.9101 43.6446 28.8694 43.6408C29.2584 43.6401 29.6066 43.7245 29.8848 44.0072C30.4637 44.5951 30.2858 45.5743 29.5388 45.9308C29.4498 45.9738 29.3579 46.0107 29.2674 46.0506C25.9365 46.0506 22.6056 46.0506 19.2746 46.0506C19.2302 46.0325 19.1872 46.0039 19.1405 45.9964C17.4475 45.7235 16.2128 44.816 15.4749 43.2768C15.2503 42.8087 15.1553 42.2788 15.0008 41.7775C15 35.1571 15 28.5367 15 21.9163Z" fill="#FFF6FF"/>
<path d="M37.9359 46.0514C37.2484 45.8811 36.5384 45.7718 35.8773 45.5298C32.7522 44.3863 30.7713 40.925 31.3547 37.6506C31.8688 34.7629 33.521 32.7677 36.2972 31.8669C39.1525 30.9405 41.7334 31.6144 43.8108 33.7853C45.7231 35.7835 46.3005 38.2197 45.4924 40.8557C44.6309 43.6687 42.6598 45.3617 39.757 45.9368C39.552 45.9775 39.3454 46.013 39.1396 46.0514C38.7386 46.0514 38.3369 46.0514 37.9359 46.0514ZM43.4128 38.7632C43.409 36.0797 41.2065 33.8863 38.5246 33.8946C35.8517 33.9029 33.6688 36.0865 33.662 38.7594C33.6559 41.4413 35.8509 43.6416 38.5351 43.6431C41.2186 43.6439 43.4166 41.4451 43.4128 38.7632Z" fill="#FFF6FF"/>
<path d="M23.7264 27.878C23.7249 28.5398 23.1761 29.0825 22.5143 29.0765C21.8525 29.0705 21.3136 28.5187 21.3234 27.8569C21.3332 27.2071 21.8706 26.6757 22.5211 26.6735C23.1822 26.6705 23.7287 27.2162 23.7264 27.878Z" fill="#FFF6FF"/>
<path d="M27.7706 29.0765C27.1088 29.081 26.5608 28.5376 26.5608 27.8757C26.5608 27.2139 27.108 26.6697 27.7698 26.6735C28.4196 26.6773 28.9563 27.2094 28.9646 27.8592C28.9729 28.5202 28.4324 29.072 27.7706 29.0765Z" fill="#FFF6FF"/>
<path d="M34.2018 27.881C34.1988 28.5428 33.6478 29.084 32.9867 29.0765C32.3249 29.069 31.7867 28.5157 31.7988 27.8539C31.8101 27.2041 32.349 26.6742 32.9988 26.6735C33.6598 26.672 34.2048 27.2192 34.2018 27.881Z" fill="#FFF6FF"/>
<path d="M38.2382 29.0764C37.5764 29.0772 37.0314 28.5307 37.0352 27.8689C37.0382 27.2071 37.5892 26.6659 38.2503 26.6734C38.9 26.681 39.4337 27.2161 39.4382 27.8659C39.4435 28.5277 38.9 29.0757 38.2382 29.0764Z" fill="#FFF6FF"/>
<path d="M22.5129 31.9091C23.1747 31.9023 23.7242 32.4443 23.7264 33.1061C23.7287 33.7679 23.1837 34.3137 22.5219 34.3121C21.8714 34.3106 21.334 33.78 21.3234 33.1302C21.3121 32.4692 21.8511 31.9159 22.5129 31.9091Z" fill="#FFF6FF"/>
<path d="M27.7691 34.3121C27.1073 34.3159 26.5601 33.7717 26.5601 33.1098C26.5601 32.448 27.1081 31.9046 27.7699 31.9091C28.4196 31.9136 28.9555 32.4465 28.9638 33.0963C28.9721 33.7581 28.4309 34.3083 27.7691 34.3121Z" fill="#FFF6FF"/>
<path d="M23.7264 38.3728C23.7121 39.0338 23.1528 39.5667 22.4918 39.5487C21.8299 39.5306 21.3015 38.9682 21.3234 38.3072C21.3453 37.6574 21.8925 37.1366 22.5423 37.1464C23.2048 37.1554 23.7408 37.7117 23.7264 38.3728Z" fill="#FFF6FF"/>
<path d="M27.7638 39.5486C27.102 39.5494 26.557 39.0029 26.5608 38.3411C26.5638 37.6793 27.1148 37.138 27.7759 37.1456C28.4256 37.1531 28.9593 37.6883 28.9638 38.3381C28.9691 38.9999 28.4256 39.5479 27.7638 39.5486Z" fill="#FFF6FF"/>
<path d="M39.7381 37.5692C39.9763 37.5692 40.1663 37.5587 40.3555 37.5715C41.0045 37.616 41.4952 38.1474 41.4854 38.7866C41.4763 39.4137 40.9886 39.9399 40.3502 39.9632C39.72 39.9866 39.0876 39.9873 38.4575 39.9617C37.8431 39.9368 37.3592 39.4484 37.3434 38.8318C37.3215 37.971 37.3215 37.1087 37.3426 36.2486C37.3585 35.5959 37.8967 35.1006 38.5366 35.0991C39.1758 35.0984 39.7057 35.5928 39.7351 36.2449C39.754 36.673 39.7381 37.1019 39.7381 37.5692Z" fill="#FFF6FF"/>
</svg>
